<?xml version="1.0" standalone="no"?>
<!DOCTYPE svg PUBLIC "-//W3C//DTD SVG 20010904//EN"
 "http://www.w3.org/TR/2001/REC-SVG-20010904/DTD/svg10.dtd">
<svg version="1.0" xmlns="http://www.w3.org/2000/svg"
 width="2048.000000pt" height="2048.000000pt" viewBox="0 0 2048.000000 2048.000000"
 preserveAspectRatio="xMidYMid meet">

<g transform="translate(0.000000,2048.000000) scale(0.100000,-0.100000)"
fill="#3B6D11" stroke="none">
<path d="M0 10240 l0 -10240 10240 0 10240 0 0 10240 0 10240 -10240 0 -10240
0 0 -10240z m9836 6691 c122 -60 262 -112 374 -140 189 -45 277 -53 735 -61
500 -8 522 -11 690 -94 203 -101 319 -266 344 -491 24 -209 -37 -402 -183
-577 -122 -147 -241 -216 -691 -398 -745 -302 -1311 -526 -1474 -581 l-84 -29
125 128 c168 171 246 292 337 519 59 149 131 394 131 446 0 7 -33 23 -74 35
-97 31 -185 83 -267 160 -66 61 -118 132 -99 132 6 0 52 -7 102 -16 104 -18
303 -15 373 6 l40 12 -60 22 c-202 74 -358 203 -439 364 -37 75 -61 141 -53
149 3 3 26 -9 51 -27 141 -96 378 -167 616 -184 69 -5 80 -4 60 6 -14 6 -62
28 -108 49 -154 71 -305 189 -400 312 -74 96 -177 307 -150 307 3 0 50 -22
104 -49z m2438 -1117 c96 -56 190 -148 245 -241 22 -38 41 -73 41 -79 0 -5
-115 -9 -289 -9 -194 0 -287 3 -283 10 3 5 22 30 41 55 42 55 81 140 110 238
16 53 26 72 39 72 10 0 53 -21 96 -46z m-420 -619 c-24 -37 -54 -101 -69 -146
-55 -174 -26 -364 126 -824 105 -320 137 -497 154 -835 4 -92 -10 -284 -24
-321 -6 -17 -17 -13 -117 35 -126 61 -314 180 -418 266 -332 271 -509 635
-467 963 33 256 121 448 285 615 137 141 255 216 436 276 146 49 147 48 94
-29z m-878 -362 c-101 -201 -136 -323 -144 -495 -2 -65 -8 -118 -11 -117 -3 0
-33 33 -67 72 -115 136 -245 223 -409 273 -49 15 -94 30 -98 34 -4 4 68 35
160 70 187 70 374 148 503 208 47 22 91 41 97 41 7 1 -6 -36 -31 -86z m-786
-438 c151 -34 325 -136 426 -248 174 -193 246 -396 261 -727 10 -234 -21 -464
-98 -735 -147 -515 -439 -977 -933 -1471 -420 -419 -1001 -846 -1581 -1161
-213 -116 -536 -276 -745 -369 -282 -126 -330 -145 -330 -131 1 29 118 321
130 325 49 17 569 298 770 417 448 265 881 585 1244 919 411 380 755 889 903
1336 83 254 123 475 123 690 l0 145 -99 -99 -98 -98 -6 -73 c-22 -251 -156
-652 -313 -931 -198 -353 -577 -778 -988 -1108 -325 -261 -773 -559 -1138
-757 -73 -40 -177 -96 -230 -125 -77 -41 -98 -49 -98 -36 1 9 20 82 43 162 38
129 45 147 72 163 17 10 95 56 175 101 372 210 793 519 1104 810 373 351 678
784 820 1167 39 106 88 269 84 279 -2 4 -59 -26 -128 -67 l-125 -75 -45 -121
c-46 -123 -131 -287 -225 -432 -84 -130 -209 -279 -390 -464 -272 -278 -524
-483 -885 -722 -162 -107 -329 -209 -342 -209 -3 0 4 48 17 108 44 204 40 196
103 238 539 353 943 775 1180 1232 35 68 62 125 60 127 -2 3 -97 -23 -255 -70
-7 -2 -28 -35 -47 -72 -44 -88 -180 -278 -281 -394 -44 -50 -132 -138 -195
-196 -110 -101 -365 -310 -422 -348 -27 -17 -28 -17 -28 3 0 24 59 289 94 422
82 311 248 765 371 1015 90 181 276 501 364 625 394 553 830 883 1276 965 102
18 303 14 405 -10z m1180 -1179 c165 -139 288 -214 490 -302 116 -50 144 -66
142 -81 -7 -36 -110 -331 -146 -418 -84 -202 -210 -419 -354 -610 -91 -119
-428 -460 -562 -567 -373 -298 -895 -547 -1423 -678 -71 -18 -130 -30 -132
-28 -3 2 62 58 143 124 215 175 368 313 538 486 233 237 354 386 525 645 107
163 279 503 336 664 99 279 152 563 160 848 l6 193 94 -100 c51 -56 134 -135
183 -176z m2577 -48 c38 -23 88 -118 102 -194 11 -57 14 -83 71 -649 21 -214
42 -435 45 -490 4 -55 18 -217 31 -360 37 -392 61 -677 79 -915 9 -118 22
-264 30 -325 8 -60 19 -184 25 -275 6 -91 15 -196 20 -235 5 -38 19 -194 30
-345 12 -151 30 -363 40 -470 11 -107 31 -316 45 -465 28 -294 37 -344 49
-255 40 302 125 959 131 1020 11 105 55 465 65 530 9 61 38 299 75 635 10 83
24 197 32 255 8 58 21 159 28 225 17 138 27 181 62 250 80 162 224 192 332 68
69 -78 82 -120 271 -891 112 -454 169 -662 197 -715 l15 -31 14 25 c20 39 87
212 134 344 57 161 94 229 166 301 69 69 159 118 245 134 35 7 277 9 653 8
l598 -3 30 -34 c27 -30 30 -39 25 -79 -8 -70 -37 -92 -138 -103 -46 -5 -317
-8 -604 -7 -597 3 -580 6 -657 -81 -45 -50 -56 -76 -164 -366 -82 -224 -140
-317 -221 -356 -100 -48 -236 18 -301 148 -24 47 -69 179 -78 230 -9 52 -256
1036 -289 1153 -25 91 -44 138 -45 114 0 -7 -9 -70 -19 -140 -11 -71 -31 -230
-46 -354 -31 -264 -74 -616 -109 -890 -14 -107 -34 -274 -45 -370 -11 -96 -29
-245 -40 -330 -11 -85 -29 -243 -41 -350 -11 -107 -27 -235 -35 -285 -7 -49
-21 -144 -30 -210 -30 -225 -69 -349 -127 -403 -80 -74 -206 -31 -257 89 -40
91 -45 129 -121 914 -22 226 -44 475 -50 555 -6 80 -19 244 -30 365 -11 121
-29 330 -40 465 -28 332 -54 631 -84 965 -14 154 -37 406 -51 560 -14 154 -33
372 -44 485 -11 113 -25 268 -32 345 -6 77 -15 146 -18 153 -4 7 -13 -43 -20
-110 -7 -68 -21 -195 -32 -283 -10 -88 -26 -230 -34 -315 -19 -188 -49 -469
-70 -645 -8 -71 -31 -296 -50 -500 -20 -203 -40 -399 -45 -435 -10 -67 -45
-390 -55 -515 -27 -313 -71 -608 -105 -699 -61 -161 -171 -214 -279 -134 -86
63 -116 152 -171 507 -22 141 -44 279 -50 306 -10 54 -35 216 -105 695 -38
260 -112 723 -148 923 -5 31 -13 57 -16 57 -16 0 -92 -296 -151 -587 -34 -171
-55 -236 -105 -338 -74 -150 -188 -251 -345 -306 -64 -23 -72 -23 -420 -20
-195 1 -356 3 -356 4 -1 1 4 34 12 72 7 39 13 87 14 108 l0 37 210 0 c161 0
210 3 211 13 0 10 2 10 6 0 7 -19 208 -17 263 2 105 37 202 148 240 274 11 36
54 217 95 401 41 184 86 369 100 411 47 140 114 217 199 226 63 8 91 -2 140
-47 55 -51 87 -124 121 -275 25 -111 44 -229 125 -770 17 -115 51 -331 75
-480 24 -148 47 -292 50 -320 21 -159 84 -506 95 -518 4 -4 12 32 19 80 22
155 92 774 116 1028 9 94 24 242 35 330 10 88 28 257 40 375 11 118 27 285 35
370 9 85 22 209 30 275 8 66 24 215 35 330 55 546 90 840 112 940 20 91 63
153 133 189 35 19 74 13 122 -16z m-8283 -746 c95 -65 135 -217 171 -652 6
-71 20 -202 79 -770 27 -261 73 -709 87 -850 4 -47 15 -155 23 -240 9 -85 25
-249 36 -365 11 -115 27 -259 35 -320 7 -60 21 -189 30 -285 14 -157 24 -254
42 -390 5 -36 8 -41 14 -25 7 18 66 363 145 855 38 240 91 506 114 576 28 83
80 168 142 231 29 29 53 62 55 75 4 27 13 37 13 15 0 -22 2 -22 63 13 80 45
160 59 345 61 90 0 166 -2 169 -4 2 -3 -7 -42 -21 -87 -14 -44 -26 -86 -26
-93 -1 -33 -18 -38 -156 -44 -115 -4 -148 -9 -190 -28 -132 -59 -194 -164
-224 -385 -5 -36 -25 -157 -44 -270 -41 -237 -105 -641 -135 -850 -30 -210
-66 -351 -104 -408 -36 -53 -101 -92 -155 -92 -41 0 -104 31 -131 66 -61 78
-102 312 -157 899 -8 94 -26 278 -40 410 -13 132 -35 359 -49 505 -37 384 -94
939 -150 1465 -27 250 -55 489 -59 492 -5 5 -18 -86 -61 -427 -20 -151 -47
-363 -61 -470 -14 -107 -29 -231 -34 -275 -11 -100 -52 -421 -84 -665 -14
-102 -34 -265 -45 -364 -39 -336 -74 -459 -154 -543 -56 -59 -100 -77 -159
-64 -123 28 -174 123 -253 471 -44 195 -90 417 -120 580 -7 41 -43 218 -78
392 -62 303 -89 412 -108 432 -13 14 -48 -74 -129 -324 -86 -268 -119 -337
-192 -406 -62 -59 -103 -82 -203 -114 -69 -23 -79 -23 -504 -22 -410 1 -436 2
-460 20 -14 10 -32 32 -40 47 -12 25 -12 35 0 69 19 52 53 76 122 83 40 4 57
10 57 20 0 12 4 12 22 -1 19 -13 57 -16 228 -15 118 1 194 4 180 9 -14 4 -19
9 -12 10 14 3 29 6 40 10 4 1 11 2 16 1 5 -1 13 4 17 11 6 9 9 3 9 -16 l0 -28
128 4 c106 3 135 7 174 26 98 48 128 103 223 407 68 216 118 327 176 390 53
57 86 75 139 75 58 0 113 -32 159 -93 77 -103 93 -156 180 -578 148 -720 174
-838 185 -832 7 5 7 2 0 -8 -12 -14 13 -148 52 -278 l17 -56 13 49 c24 94 46
247 145 1046 16 135 43 349 59 475 16 127 32 257 35 290 3 33 19 164 35 290
77 606 102 737 155 816 53 81 136 102 209 51z m-1064 -1142 c0 -5 -10 -10 -22
-9 -22 0 -22 1 -3 9 11 5 21 9 23 9 1 1 2 -3 2 -9z m508 -461 c-3 -8 -7 -3
-11 10 -4 17 -3 21 5 13 5 -5 8 -16 6 -23z m-17 -19 c10 -6 19 -17 19 -25 0
-12 -13 -15 -57 -13 -45 1 -49 2 -20 5 33 4 38 7 34 24 -6 22 -3 23 24 9z
m5820 -130 c69 -27 132 -77 181 -141 53 -71 71 -140 66 -253 -5 -105 -30 -166
-101 -243 -41 -45 -144 -119 -153 -110 -3 2 4 20 15 38 37 64 54 155 48 264
-8 168 -53 261 -194 400 l-78 78 81 -6 c45 -4 105 -15 135 -27z m-452 -39
c193 -60 325 -246 309 -436 -6 -67 -54 -169 -106 -222 -56 -58 -218 -139 -169
-85 9 10 29 44 44 77 25 53 28 72 28 160 0 91 -3 106 -31 165 -67 140 -184
208 -386 226 l-83 7 129 64 c143 70 168 74 265 44z m-244 -292 c54 -15 137
-100 158 -162 l16 -47 -77 -1 c-158 -3 -1257 3 -1260 6 -3 3 21 93 49 183 l11
32 531 0 c353 0 545 -4 572 -11z m-5105 -129 c6 -11 7 -20 2 -20 -6 0 -12 9
-15 20 -3 11 -3 20 -1 20 2 0 8 -9 14 -20z m3714 -180 c-45 -251 -57 -411 -51
-685 8 -351 41 -605 119 -910 185 -729 598 -1444 1154 -1999 472 -472 963
-814 1571 -1095 460 -213 1092 -402 1538 -461 158 -20 163 -21 140 -30 -43
-16 -422 -32 -605 -26 -518 19 -926 93 -1385 250 -395 135 -818 350 -1129 573
-383 275 -702 583 -969 935 -363 479 -607 1035 -701 1598 -91 550 -40 1175
145 1760 l30 95 82 67 c45 37 82 66 83 65 1 -1 -9 -63 -22 -137z m-413 -157
c-5 -10 -23 -74 -39 -143 -111 -456 -142 -871 -101 -1340 61 -687 295 -1394
669 -2021 204 -343 528 -762 819 -1062 70 -72 354 -332 506 -462 263 -226 696
-517 1110 -748 308 -171 851 -406 1190 -514 94 -30 193 -63 220 -74 l50 -19
-110 5 c-160 8 -543 64 -805 116 -367 73 -901 253 -1249 420 -79 38 -145 69
-147 69 -15 0 -358 201 -495 290 -547 354 -1030 816 -1379 1318 -227 327 -471
799 -568 1102 -165 511 -241 1032 -213 1464 31 496 116 894 282 1325 33 86 65
163 72 171 9 13 183 119 195 120 1 0 -2 -8 -7 -17z m-2271 -113 c0 -11 -4 -20
-9 -20 -7 0 -8 17 -2 38 4 10 11 -2 11 -18z m1783 -167 c-111 -291 -189 -624
-239 -1010 -21 -165 -25 -772 -6 -978 62 -679 227 -1396 449 -1960 119 -302
349 -780 457 -949 18 -28 36 -58 41 -66 20 -33 -109 83 -288 260 -239 235
-436 475 -588 716 -112 177 -270 514 -337 717 -78 235 -95 296 -127 447 -126
602 -125 1066 2 1660 42 201 140 503 227 703 63 144 176 364 206 398 11 13
214 128 227 129 1 0 -9 -30 -24 -67z m10187 -6745 c30 -80 45 -114 57 -129 7
-8 13 -22 13 -30 0 -8 23 -37 50 -64 28 -27 50 -53 50 -57 0 -4 -81 -8 -180
-8 l-180 0 0 -180 c0 -99 -4 -180 -8 -180 -4 0 -28 21 -52 46 -39 39 -167 114
-197 114 -22 0 -63 26 -63 41 0 15 38 39 61 39 16 0 97 39 104 50 3 5 13 10
22 10 8 0 31 14 50 30 18 17 45 30 58 30 21 0 25 5 25 28 0 18 10 38 26 53 24
22 94 154 94 176 0 22 26 63 41 63 10 0 22 -14 29 -32z m370 -403 c25 -8 53
-18 63 -21 9 -4 17 -14 17 -24 0 -18 -14 -27 -65 -40 -16 -4 -38 -11 -47 -15
-16 -6 -18 0 -18 54 0 34 1 61 3 61 1 0 22 -7 47 -15z m-348 -400 c5 -5 -3
-33 -28 -107 -10 -27 -40 -22 -52 10 -12 31 -32 93 -32 98 0 6 106 4 112 -1z"/>
<path d="M11241 16058 c-56 -10 -108 -51 -138 -109 -20 -36 -23 -55 -19 -107
7 -107 80 -186 183 -199 65 -7 115 10 166 56 48 43 67 85 67 146 0 138 -121
237 -259 213z"/>
<path d="M5080 10780 c0 -5 5 -10 11 -10 5 0 7 5 4 10 -3 6 -8 10 -11 10 -2 0
-4 -4 -4 -10z"/>
</g>
</svg>
